# xmcd CD database file
#
# Track frame offsets:
#	182
#	13590
#	25992
#	39167
#	56275
#	73205
#	85525
#	99635
#	113262
#	125755
#	139200
#	153575
#	167825
#	181172
#	196925
#	212160
#	227305
#	240377
#	254220
#
# Disc length: 3566 seconds
#
# Revision: 0
# Processed by: cddbd v1.5.1PL0 Copyright (c) Steve Scherf et al.
# Submitted via: CDex 1.51
#
DISCID=f80dec13
DTITLE=Sidney Bechet - Rencontres
DYEAR=1970
DGENRE=Jazz
TTITLE0=I only have eyes for you
TTITLE1=The man i love
TTITLE2=Exactly like you
TTITLE3=These foolish things
TTITLE4=Pennies from heaven
TTITLE5=Once in a while
TTITLE6=Jeepers creepers
TTITLE7=I never knew
TTITLE8=All the things you are
TTITLE9=Embreacable you
TTITLE10=Wrap your troubles in dreams
TTITLE11=All of me
TTITLE12=It don't mean a thing
TTITLE13=Orphan Annie's blues
TTITLE14=Happy go lucky blues
TTITLE15=Klook's blues
TTITLE16=American rhythm
TTITLE17=Out of nowhere
TTITLE18=Mon homme
EXTD=YEAR: 1970
EXTT0=
EXTT1=
EXTT2=
EXTT3=
EXTT4=
EXTT5=
EXTT6=
EXTT7=
EXTT8=
EXTT9=
EXTT10=
EXTT11=
EXTT12=
EXTT13=
EXTT14=
EXTT15=
EXTT16=
EXTT17=
EXTT18=
PLAYORDER=
